<svg aria-roledescription="gitGraph" role="graphics-document document" viewBox="-186.26666259765625 -39 957.6416625976562 709.4442138671875" style="max-width: 957.6416625976562px;" xmlns="http://www.w3.org/2000/svg" width="100%" id="export-svg"><style xmlns="http://www.w3.org/1999/xhtml">@import url("https://cdnjs.cloudflare.com/ajax/libs/font-awesome/6.2.0/css/all.min.css"); p {margin: 0;}</style><style>#export-svg{font-family:arial,sans-serif;font-size:14px;fill:#333;}@keyframes edge-animation-frame{from{stroke-dashoffset:0;}}@keyframes dash{to{stroke-dashoffset:0;}}#export-svg .edge-animation-slow{stroke-dasharray:9,5!important;stroke-dashoffset:900;animation:dash 50s linear infinite;stroke-linecap:round;}#export-svg .edge-animation-fast{stroke-dasharray:9,5!important;stroke-dashoffset:900;animation:dash 20s linear infinite;stroke-linecap:round;}#export-svg .error-icon{fill:#552222;}#export-svg .error-text{fill:#552222;stroke:#552222;}#export-svg .edge-thickness-normal{stroke-width:1px;}#export-svg .edge-thickness-thick{stroke-width:3.5px;}#export-svg .edge-pattern-solid{stroke-dasharray:0;}#export-svg .edge-thickness-invisible{stroke-width:0;fill:none;}#export-svg .edge-pattern-dashed{stroke-dasharray:3;}#export-svg .edge-pattern-dotted{stroke-dasharray:2;}#export-svg .marker{fill:#333333;stroke:#333333;}#export-svg .marker.cross{stroke:#333333;}#export-svg svg{font-family:arial,sans-serif;font-size:14px;}#export-svg p{margin:0;}#export-svg .commit-id,#export-svg .commit-msg,#export-svg .branch-label{fill:lightgrey;color:lightgrey;font-family:'trebuchet ms',verdana,arial,sans-serif;font-family:var(--mermaid-font-family);}#export-svg .branch-label0{fill:#ffffff;}#export-svg .commit0{stroke:#3679bb;fill:#3679bb;}#export-svg .commit-highlight0{stroke:#DE1B1B;fill:#DE1B1B;}#export-svg .label0{fill:#3679bb;}#export-svg .arrow0{stroke:#3679bb;}#export-svg .branch-label1{fill:#ffffff;}#export-svg .commit1{stroke:#103253;fill:#103253;}#export-svg .commit-highlight1{stroke:#DE1B1B;fill:#DE1B1B;}#export-svg .label1{fill:#103253;}#export-svg .arrow1{stroke:#103253;}#export-svg .branch-label2{fill:#000000;}#export-svg .commit2{stroke:#FFD644;fill:#FFD644;}#export-svg .commit-highlight2{stroke:#DE1B1B;fill:#DE1B1B;}#export-svg .label2{fill:#FFD644;}#export-svg .arrow2{stroke:#FFD644;}#export-svg .branch-label3{fill:#ffffff;}#export-svg .commit3{stroke:#103253;fill:#103253;}#export-svg .commit-highlight3{stroke:#DE1B1B;fill:#DE1B1B;}#export-svg .label3{fill:#103253;}#export-svg .arrow3{stroke:#103253;}#export-svg .branch-label4{fill:#ffffff;}#export-svg .commit4{stroke:#103253;fill:#103253;}#export-svg .commit-highlight4{stroke:#DE1B1B;fill:#DE1B1B;}#export-svg .label4{fill:#103253;}#export-svg .arrow4{stroke:#103253;}#export-svg .branch-label5{fill:#000000;}#export-svg .commit5{stroke:#FFD644;fill:#FFD644;}#export-svg .commit-highlight5{stroke:#DE1B1B;fill:#DE1B1B;}#export-svg .label5{fill:#FFD644;}#export-svg .arrow5{stroke:#FFD644;}#export-svg .branch-label6{fill:#000000;}#export-svg .commit6{stroke:#FFD644;fill:#FFD644;}#export-svg .commit-highlight6{stroke:#DE1B1B;fill:#DE1B1B;}#export-svg .label6{fill:#FFD644;}#export-svg .arrow6{stroke:#FFD644;}#export-svg .branch-label7{fill:#000000;}#export-svg .commit7{stroke:#FFD644;fill:#FFD644;}#export-svg .commit-highlight7{stroke:#DE1B1B;fill:#DE1B1B;}#export-svg .label7{fill:#FFD644;}#export-svg .arrow7{stroke:#FFD644;}#export-svg .branch{stroke-width:1;stroke:#333333;stroke-dasharray:2;}#export-svg .commit-label{font-size:14px;fill:#FFFFFF;}#export-svg .commit-label-bkg{font-size:14px;fill:#103253;opacity:0.5;}#export-svg .tag-label{font-size:16px;fill:#FFFFFF;}#export-svg .tag-label-bkg{fill:#103253;stroke:#103253;}#export-svg .tag-hole{fill:#333;}#export-svg .commit-merge{stroke:#ECECFF;fill:#ECECFF;}#export-svg .commit-reverse{stroke:#ECECFF;fill:#ECECFF;stroke-width:3;}#export-svg .commit-highlight-inner{stroke:#ECECFF;fill:#ECECFF;}#export-svg .arrow{stroke-width:8;stroke-linecap:round;fill:none;}#export-svg .gitTitleText{text-anchor:middle;font-size:18px;fill:#333;}#export-svg .node .neo-node{stroke:#B8B8FF;}#export-svg [data-look="neo"].node rect,#export-svg [data-look="neo"].cluster rect,#export-svg [data-look="neo"].node polygon{stroke:#B8B8FF;filter:drop-shadow( 1px 2px 2px rgba(185,185,185,1));}#export-svg [data-look="neo"].node path{stroke:#B8B8FF;stroke-width:1;}#export-svg [data-look="neo"].node .outer-path{filter:drop-shadow( 1px 2px 2px rgba(185,185,185,1));}#export-svg [data-look="neo"].node .neo-line path{stroke:#B8B8FF;filter:none;}#export-svg [data-look="neo"].node circle{stroke:#B8B8FF;filter:drop-shadow( 1px 2px 2px rgba(185,185,185,1));}#export-svg [data-look="neo"].node circle .state-start{fill:#000000;}#export-svg [data-look="neo"].statediagram-cluster rect{fill:#ECECFF;stroke:#B8B8FF;stroke-width:1;}#export-svg [data-look="neo"].icon-shape .icon{fill:#B8B8FF;filter:drop-shadow( 1px 2px 2px rgba(185,185,185,1));}#export-svg [data-look="neo"].icon-shape .icon-neo path{stroke:#B8B8FF;filter:drop-shadow( 1px 2px 2px rgba(185,185,185,1));}#export-svg :root{--mermaid-font-family:"trebuchet ms",verdana,arial,sans-serif;}</style><g/><g class="commit-bullets"/><g class="commit-labels"/><g><line class="branch branch0" y2="0" x2="750" y1="0" x1="0"/><rect transform="translate(-19, -8.75)" height="21.5" width="55.349998474121094" y="-0.75" x="-71.3499984741211" ry="4" rx="4" class="branchLabelBkg label0"/><g class="branchLabel"><g transform="translate(-81.3499984741211, -9.75)" class="label branch-label0"><text><tspan class="row" x="0" dy="1em" xml:space="preserve">stable</tspan></text></g></g><line class="branch branch1" y2="90" x2="750" y1="90" x1="0"/><rect transform="translate(-19, 81.25)" height="21.5" width="87.23332977294922" y="-0.75" x="-103.23332977294922" ry="4" rx="4" class="branchLabelBkg label1"/><g class="branchLabel"><g transform="translate(-113.23332977294922, 80.25)" class="label branch-label1"><text><tspan class="row" x="0" dy="1em" xml:space="preserve">patch/1.0.1</tspan></text></g></g><line class="branch branch2" y2="180" x2="750" y1="180" x1="0"/><rect transform="translate(-19, 171.25)" height="21.5" width="131.58333587646484" y="-0.75" x="-147.58333587646484" ry="4" rx="4" class="branchLabelBkg label2"/><g class="branchLabel"><g transform="translate(-157.58333587646484, 170.25)" class="label branch-label2"><text><tspan class="row" x="0" dy="1em" xml:space="preserve">review/patch/1.0.1</tspan></text></g></g><line class="branch branch3" y2="270" x2="750" y1="270" x1="0"/><rect transform="translate(-19, 261.25)" height="21.5" width="51.46666717529297" y="-0.75" x="-67.46666717529297" ry="4" rx="4" class="branchLabelBkg label3"/><g class="branchLabel"><g transform="translate(-77.46666717529297, 260.25)" class="label branch-label3"><text><tspan class="row" x="0" dy="1em" xml:space="preserve">devel</tspan></text></g></g><line class="branch branch4" y2="360" x2="750" y1="360" x1="0"/><rect transform="translate(-19, 351.25)" height="21.5" width="92.66666412353516" y="-0.75" x="-108.66666412353516" ry="4" rx="4" class="branchLabelBkg label4"/><g class="branchLabel"><g transform="translate(-118.66666412353516, 350.25)" class="label branch-label4"><text><tspan class="row" x="0" dy="1em" xml:space="preserve">feature/XYZ</tspan></text></g></g><line class="branch branch5" y2="450" x2="750" y1="450" x1="0"/><rect transform="translate(-19, 441.25)" height="21.5" width="137.01667022705078" y="-0.75" x="-153.01667022705078" ry="4" rx="4" class="branchLabelBkg label5"/><g class="branchLabel"><g transform="translate(-163.01667022705078, 440.25)" class="label branch-label5"><text><tspan class="row" x="0" dy="1em" xml:space="preserve">review/feature/XYZ</tspan></text></g></g><line class="branch branch6" y2="540" x2="750" y1="540" x1="0"/><rect transform="translate(-19, 531.25)" height="21.5" width="143.26667022705078" y="-0.75" x="-159.26667022705078" ry="4" rx="4" class="branchLabelBkg label6"/><g class="branchLabel"><g transform="translate(-169.26667022705078, 530.25)" class="label branch-label6"><text><tspan class="row" x="0" dy="1em" xml:space="preserve">review/release/2.0.0</tspan></text></g></g></g><g class="commit-arrows"><path class="arrow arrow0" d="M 10 0 L 60 0"/><path class="arrow arrow4" d="M 60 0 L 60 340 A 20 20, 0, 0, 0, 80 360 L 110 360"/><path class="arrow arrow1" d="M 60 0 L 60 70 A 20 20, 0, 0, 0, 80 90 L 160 90"/><path class="arrow arrow1" d="M 160 90 L 210 90"/><path class="arrow arrow2" d="M 210 90 L 210 160 A 20 20, 0, 0, 0, 230 180 L 260 180"/><path class="arrow arrow0" d="M 60 0 L 310 0"/><path class="arrow arrow2" d="M 260 180 L 290 180 A 20 20, 0, 0, 0, 310 160 L 310 0"/><path class="arrow arrow4" d="M 110 360 L 360 360"/><path class="arrow arrow5" d="M 360 360 L 360 430 A 20 20, 0, 0, 0, 380 450 L 410 450"/><path class="arrow arrow3" d="M 60 0 L 60 250 A 20 20, 0, 0, 0, 80 270 L 460 270"/><path class="arrow arrow5" d="M 410 450 L 440 450 A 20 20, 0, 0, 0, 460 430 L 460 270"/><path class="arrow arrow3" d="M 460 270 L 510 270"/><path class="arrow arrow3" d="M 510 270 L 560 270"/><path class="arrow arrow0" d="M 310 0 L 310 125 A 10 10, 0, 0, 0, 320 135 L 550 135 A 10 10, 0, 0, 1, 560 145 L 560 270"/><path class="arrow arrow6" d="M 560 270 L 560 520 A 20 20, 0, 0, 0, 580 540 L 610 540"/><path class="arrow arrow0" d="M 310 0 L 660 0"/><path class="arrow arrow6" d="M 610 540 L 640 540 A 20 20, 0, 0, 0, 660 520 L 660 0"/><path class="arrow arrow0" d="M 660 0 L 710 0"/></g><g class="commit-bullets"><circle class="commit   commit0" r="10" cy="0" cx="10"/><circle class="commit v1.0.0 commit0" r="10" cy="0" cx="60"/><circle class="commit Work on Feature XYZ - part 1 commit4" r="10" cy="360" cx="110"/><circle class="commit [FIX] Fix typo in config commit1" r="10" cy="90" cx="160"/><circle class="commit [CI] Add test for config fix commit1" r="10" cy="90" cx="210"/><circle class="commit Review: patch/1.0.1 commit2" r="10" cy="180" cx="260"/><circle class="commit 6-f38c5ed commit0" r="9" cy="0" cx="310"/><circle class="commit commit-merge 6-f38c5ed commit0" r="6" cy="0" cx="310"/><circle class="commit Work on Feature XYZ - part 2 commit4" r="10" cy="360" cx="360"/><circle class="commit Review: feature/XYZ commit5" r="10" cy="450" cx="410"/><circle class="commit 9-4989c08 commit3" r="9" cy="270" cx="460"/><circle class="commit commit-merge 9-4989c08 commit3" r="6" cy="270" cx="460"/><circle class="commit v1.0.1 commit3" r="10" cy="270" cx="510"/><circle class="commit 11-b1afde1 commit3" r="9" cy="270" cx="560"/><circle class="commit commit-merge 11-b1afde1 commit3" r="6" cy="270" cx="560"/><circle class="commit Review: release 1.0.0 commit6" r="10" cy="540" cx="610"/><circle class="commit 13-fd503dd commit0" r="9" cy="0" cx="660"/><circle class="commit commit-merge 13-fd503dd commit0" r="6" cy="0" cx="660"/><circle class="commit v2.0.0 commit0" r="10" cy="0" cx="710"/></g><g class="commit-labels"><g transform="translate(-11.3, 10) rotate(-45, 0, 0)"><rect height="4" width="4" y="13.5" x="8" class="commit-label-bkg"/><text class="commit-label" y="25" x="10"> </text></g><g transform="translate(-25.78433265686035, 22.959666061401368) rotate(-45, 50, 0)"><rect height="21.5" width="42.11666488647461" y="13.5" x="38.941667556762695" class="commit-label-bkg"/><text class="commit-label" y="25" x="40.941667556762695">v1.0.0</text></g><polygon points="-1.375,-17.2  &#xA;      -1.375,-21.2&#xA;      6.625,-30.575&#xA;      113.375,-30.575&#xA;      113.375,-7.824999999999999&#xA;      6.625,-7.824999999999999" class="tag-label-bkg"/><circle class="tag-hole" r="1.5" cx="2.625" cy="-19.2"/><text x="10.625" class="tag-label" y="-16">Release 1.0.0</text><g transform="translate(-80.95400115966797, 72.32200103759766) rotate(-45, 100, 360)"><rect height="21.5" width="187.3000030517578" y="373.5" x="16.349998474121094" class="commit-label-bkg"/><text class="commit-label" y="385" x="18.349998474121094">Work on Feature XYZ - part 1</text></g><g transform="translate(-63.90466705322266, 57.067333679199216) rotate(-45, 150, 90)"><rect height="21.5" width="142.43333435058594" y="103.5" x="88.78333282470703" class="commit-label-bkg"/><text class="commit-label" y="115" x="90.78333282470703">[FIX] Fix typo in config</text></g><g transform="translate(-70.70033294677734, 63.14766632080078) rotate(-45, 200, 90)"><rect height="21.5" width="160.31666564941406" y="103.5" x="129.84166717529297" class="commit-label-bkg"/><text class="commit-label" y="115" x="131.84166717529297">[CI] Add test for config fix</text></g><g transform="translate(-58.00833236694336, 51.79166580200195) rotate(-45, 250, 180)"><rect height="21.5" width="126.91666412353516" y="193.5" x="196.54166793823242" class="commit-label-bkg"/><text class="commit-label" y="205" x="198.54166793823242">Review: patch/1.0.1</text></g><g transform="translate(-80.95400115966797, 72.32200103759766) rotate(-45, 350, 360)"><rect height="21.5" width="187.3000030517578" y="373.5" x="266.3499984741211" class="commit-label-bkg"/><text class="commit-label" y="385" x="268.3499984741211">Work on Feature XYZ - part 2</text></g><g transform="translate(-60.073002319335934, 53.639002075195314) rotate(-45, 400, 450)"><rect height="21.5" width="132.35000610351562" y="463.5" x="343.8249969482422" class="commit-label-bkg"/><text class="commit-label" y="475" x="345.8249969482422">Review: feature/XYZ</text></g><g transform="translate(-25.78433265686035, 22.959666061401368) rotate(-45, 500, 270)"><rect height="21.5" width="42.11666488647461" y="283.5" x="488.9416675567627" class="commit-label-bkg"/><text class="commit-label" y="295" x="490.9416675567627">v1.0.1</text></g><polygon points="421.06666564941406,252.8  &#xA;      421.06666564941406,248.8&#xA;      429.06666564941406,239.425&#xA;      590.9333343505859,239.425&#xA;      590.9333343505859,262.175&#xA;      429.06666564941406,262.175" class="tag-label-bkg"/><circle class="tag-hole" r="1.5" cx="425.06666564941406" cy="250.8"/><text x="433.06666564941406" class="tag-label" y="254">Release 1.0.1 (minor)</text><g transform="translate(-62.448002319335934, 55.764002075195314) rotate(-45, 600, 540)"><rect height="21.5" width="138.60000610351562" y="553.5" x="540.6999969482422" class="commit-label-bkg"/><text class="commit-label" y="565" x="542.6999969482422">Review: release 1.0.0</text></g><g transform="translate(-25.78433265686035, 22.959666061401368) rotate(-45, 700, 0)"><rect height="21.5" width="42.11666488647461" y="13.5" x="688.9416675567627" class="commit-label-bkg"/><text class="commit-label" y="25" x="690.9416675567627">v2.0.0</text></g><polygon points="648.625,-17.2  &#xA;      648.625,-21.2&#xA;      656.625,-30.575&#xA;      763.375,-30.575&#xA;      763.375,-7.824999999999999&#xA;      656.625,-7.824999999999999" class="tag-label-bkg"/><circle class="tag-hole" r="1.5" cx="652.625" cy="-19.2"/><text x="660.625" class="tag-label" y="-16">Release 2.0.0</text></g></svg>