<svg xmlns="http://www.w3.org/2000/svg" width="350" height="300" viewBox="0 0 350 300"><rect width="50" height="50" x="50" fill="#ad1d45" stroke="none"/><rect width="50" height="50" x="100" fill="#d9195c" stroke="none"/><rect width="50" height="50" x="200" fill="#d9195c" stroke="none"/><rect width="50" height="50" x="250" fill="#d62d75" stroke="none"/><rect width="50" height="50" y="50" fill="#d9195c" stroke="none"/><rect width="50" height="50" x="50" y="50" fill="#ee2178" stroke="none"/><rect width="50" height="50" x="100" y="50" fill="#ee2178" stroke="none"/><rect width="50" height="50" x="150" y="50" fill="#d9195c" stroke="none"/><rect width="50" height="50" x="200" y="50" fill="#ee2178" stroke="none"/><rect width="50" height="50" x="250" y="50" fill="#f7b0cf" stroke="none"/><rect width="50" height="50" x="300" y="50" fill="#ad1d45" stroke="none"/><rect width="50" height="50" y="100" fill="#d62d75" stroke="none"/><rect width="50" height="50" x="50" y="100" fill="#d9195c" stroke="none"/><rect width="50" height="50" x="100" y="100" fill="#d9195c" stroke="none"/><rect width="50" height="50" x="150" y="100" fill="#ad1d45" stroke="none"/><rect width="50" height="50" x="200" y="100" fill="#d9195c" stroke="none"/><rect width="50" height="50" x="250" y="100" fill="#d62d75" stroke="none"/><rect width="50" height="50" x="300" y="100" fill="#ad1d45" stroke="none"/><rect width="50" height="50" x="50" y="150" fill="#ad1d45" stroke="none"/><rect width="50" height="50" x="100" y="150" fill="#ee2178" stroke="none"/><rect width="50" height="50" x="150" y="150" fill="#d9195c" stroke="none"/><rect width="50" height="50" x="200" y="150" fill="#ee2178" stroke="none"/><rect width="50" height="50" x="250" y="150" fill="#d9195c" stroke="none"/><rect width="50" height="50" x="100" y="200" fill="#d9195c" stroke="none"/><rect width="50" height="50" x="150" y="200" fill="#d62d75" stroke="none"/><rect width="50" height="50" x="200" y="200" fill="#d9195c" stroke="none"/><rect width="50" height="50" x="150" y="250" fill="#ee2178" stroke="none"/></svg>