<?xml version="1.0" encoding="UTF-8" standalone="no"?>
<svg
   width="524.19049"
   height="128"
   viewBox="0 0 524.19049 128"
   fill="none"
   version="1.1"
   id="svg12"
   sodipodi:docname="globaleaks-logo-color.svg"
   inkscape:version="1.3.1 (9b9bdc1480, 2023-11-25, custom)"
   xmlns:inkscape="http://www.inkscape.org/namespaces/inkscape"
   xmlns:sodipodi="http://sodipodi.sourceforge.net/DTD/sodipodi-0.dtd"
   xmlns="http://www.w3.org/2000/svg"
   xmlns:svg="http://www.w3.org/2000/svg">
  <defs
     id="defs12">
    <clipPath
       clipPathUnits="userSpaceOnUse"
       id="clipPath47">
      <path
         d="m 340,323.00006 h -27 v -27 h 27 z"
         transform="translate(-313.00001,-296.00007)"
         clip-rule="evenodd"
         id="path47" />
    </clipPath>
    <clipPath
       clipPathUnits="userSpaceOnUse"
       id="clipPath50">
      <path
         d="m 730,323.00006 h -27 v -27 h 27 z"
         transform="translate(-703.00002,-296.00007)"
         clip-rule="evenodd"
         id="path50" />
    </clipPath>
    <clipPath
       clipPathUnits="userSpaceOnUse"
       id="clipPath53">
      <path
         d="m 242,323.00006 h -27 v -27 h 27 z"
         transform="translate(-215.00001,-296.00007)"
         clip-rule="evenodd"
         id="path53" />
    </clipPath>
    <clipPath
       clipPathUnits="userSpaceOnUse"
       id="clipPath56">
      <path
         d="m 242,225.00006 h -27 v -27 h 27 z"
         transform="translate(-215.00001,-198.00007)"
         clip-rule="evenodd"
         id="path56" />
    </clipPath>
    <clipPath
       clipPathUnits="userSpaceOnUse"
       id="clipPath59">
      <path
         d="m 340,225.00006 h -27 v -27 h 27 z"
         transform="translate(-313.00001,-198.00007)"
         clip-rule="evenodd"
         id="path59" />
    </clipPath>
    <clipPath
       clipPathUnits="userSpaceOnUse"
       id="clipPath62">
      <path
         d="m 730,225.00006 h -27 v -27 h 27 z"
         transform="translate(-703.00002,-198.00007)"
         clip-rule="evenodd"
         id="path62" />
    </clipPath>
  </defs>
  <sodipodi:namedview
     id="namedview12"
     pagecolor="#ffffff"
     bordercolor="#000000"
     borderopacity="0.25"
     inkscape:showpageshadow="2"
     inkscape:pageopacity="0.0"
     inkscape:pagecheckerboard="false"
     inkscape:deskcolor="#d1d1d1"
     inkscape:zoom="1.3079578"
     inkscape:cx="224.77789"
     inkscape:cy="-1.5291013"
     inkscape:window-width="1920"
     inkscape:window-height="1011"
     inkscape:window-x="0"
     inkscape:window-y="0"
     inkscape:window-maximized="1"
     inkscape:current-layer="svg12"
     showgrid="false" />
  <g
     id="g1">
    <path
       id="path33"
       d="m 146.20499,68.536408 h 7.88511 v 4.613635 c -1.84545,1.258262 -4.02644,1.929377 -6.20743,1.929377 -5.70413,0 -10.65331,-4.949192 -10.65331,-10.821088 0,-5.788015 4.8653,-10.737126 10.65331,-10.737126 3.1876,0 6.37521,1.509878 8.38843,3.942521 l 6.71074,-5.955763 c -3.77479,-3.942557 -9.39504,-6.291318 -15.09917,-6.291318 -10.90495,0 -20.04833,8.72392 -20.04833,19.041686 0,10.317763 9.14338,19.125651 20.04833,19.125651 5.70413,0 11.32438,-2.348738 15.09917,-6.375183 V 61.574075 h -16.77685 z"
       style="fill:#103253;fill-opacity:1;fill-rule:nonzero;stroke:none;stroke-width:1.01587" />
    <path
       id="path34"
       d="M 178.16474,74.576132 V 45.887653 h -9.1434 v 36.82521 h 26.84296 v -8.220596 h -17.69956 z"
       style="fill:#103253;fill-opacity:1;fill-rule:nonzero;stroke:none;stroke-width:1.01587" />
    <path
       id="path35"
       d="m 219.10028,83.467869 c 10.82107,0 19.88058,-8.724005 19.88058,-19.125651 0,-10.317766 -9.05951,-19.041686 -19.88058,-19.041686 -10.73719,0 -19.79669,8.72392 -19.79669,19.041686 0,10.317763 9.0595,19.125651 19.79669,19.125651 z m 0,-8.388427 c -5.62025,0 -10.40164,-4.94919 -10.40164,-10.821088 0,-5.788015 4.78139,-10.737124 10.40164,-10.737124 5.62024,0 10.40164,4.949109 10.40164,10.737124 0,5.955781 -4.7814,10.821088 -10.40164,10.821088 z"
       style="fill:#103253;fill-opacity:1;fill-rule:nonzero;stroke:none;stroke-width:1.01587" />
    <path
       id="path36"
       d="m 244.51717,82.796719 h 19.96447 c 7.29793,0 12.49875,-4.110248 12.49875,-9.982143 0,-4.026446 -2.51654,-7.549645 -6.79463,-9.395099 3.1876,-1.5938 5.11694,-4.529688 5.11694,-8.220595 0,-5.368591 -4.69751,-9.311233 -11.57601,-9.311233 h -19.29338 v 36.90907 z m 9.14341,-22.313192 v -6.794602 h 7.88511 c 2.51653,0 4.36197,1.426031 4.36197,3.35537 0,1.929339 -1.84544,3.439232 -4.36197,3.439232 z m 0,14.512016 V 67.61369 h 9.31113 c 2.68429,0 4.61363,1.593822 4.61363,3.690927 0,2.097107 -1.92934,3.690926 -4.61363,3.690926 z"
       style="fill:#103253;fill-opacity:1;fill-rule:nonzero;stroke:none;stroke-width:1.01587" />
    <path
       id="path37"
       d="m 308.26937,82.796775 h 10.31778 L 303.9913,45.97167 h -10.31778 l -14.59586,36.825105 h 10.31775 l 2.181,-5.368509 h 14.59586 z m -13.8409,-12.582636 4.44588,-11.324375 4.44586,11.324375 z"
       style="fill:#103253;fill-opacity:1;fill-rule:nonzero;stroke:none;stroke-width:1.01587" />
    <path
       id="path38"
       d="M 331.42119,74.576132 V 45.887653 h -9.14338 v 36.82521 h 26.84295 v -8.220596 h -17.69957 z"
       style="fill:#103253;fill-opacity:1;fill-rule:nonzero;stroke:none;stroke-width:1.01587" />
    <path
       id="path39"
       d="m 383.01013,54.108353 v -8.2207 h -29.02399 v 36.82521 h 29.02399 v -8.220596 h -19.88058 v -6.459149 h 18.03511 v -8.220597 h -18.03511 v -5.704168 z"
       style="fill:#103253;fill-opacity:1;fill-rule:nonzero;stroke:none;stroke-width:1.01587" />
    <path
       id="path40"
       d="m 414.80212,82.796775 h 10.31775 L 410.52404,45.97167 h -10.31775 l -14.59588,36.825105 h 10.31775 l 2.18102,-5.368509 h 14.59583 z m -13.8409,-12.582636 4.44585,-11.324375 4.44591,11.324375 z"
       style="fill:#103253;fill-opacity:1;fill-rule:nonzero;stroke:none;stroke-width:1.01587" />
    <path
       id="path41"
       d="m 429.06254,82.796719 h 9.1434 v -10.06611 l 4.27808,-4.529668 10.31775,14.595778 H 463.8745 L 448.77534,61.574065 462.78402,45.887649 H 451.87906 L 438.20594,61.574065 V 45.887649 h -9.1434 z"
       style="fill:#103253;fill-opacity:1;fill-rule:nonzero;stroke:none;stroke-width:1.01587" />
    <path
       id="path42"
       d="m 481.49031,83.467834 c 9.14339,0 14.76367,-4.613673 14.76367,-11.995487 0,-6.962396 -5.28472,-9.311112 -13.58927,-11.072684 -5.45247,-1.174379 -7.21407,-1.929335 -7.21407,-4.194212 0,-1.845451 1.67768,-3.187642 4.61363,-3.187642 3.43926,0 7.13016,1.34221 10.48554,3.942622 l 4.69754,-6.543012 c -3.94255,-3.271489 -8.72395,-5.033056 -14.93139,-5.033056 -8.38842,0 -14.0926,4.697498 -14.0926,11.82766 0,7.381813 5.87193,9.562804 13.75705,11.324373 5.36859,1.258265 7.0463,1.761632 7.0463,3.942622 0,2.013222 -1.76158,3.35537 -5.20084,3.35537 -4.52975,0 -8.55619,-1.677665 -12.16322,-4.697499 l -5.11697,6.207354 c 4.44587,3.942559 10.40166,6.123591 16.94463,6.123591 z"
       style="fill:#103253;fill-opacity:1;fill-rule:nonzero;stroke:none;stroke-width:1.01587" />
    <path
       id="path43"
       d="m 86.647089,27.600944 h 7.71736 c 3.271489,0 5.955771,2.684276 5.955771,5.955761 V 93.95338 c 0,3.271485 -2.684282,5.955862 -5.955771,5.955862 H 79.097507 l 4.529756,-12.83433 c 0.503306,-1.426034 -0.251652,-3.019796 -1.677684,-3.523101 -0.251652,-0.08388 -0.419423,-0.167829 -0.671077,-0.167829 -0.251653,0 -0.587188,-2e-5 -0.838842,0.08386 -0.838844,0.167767 -1.593804,0.838925 -1.929341,1.761653 L 77.50371,87.913748 V 77.008795 c 0,-1.761572 -1.258262,-3.187562 -2.935947,-3.523101 h -0.167767 c -0.167768,0 -0.335538,0 -0.419421,0 -0.16777,0 -0.251653,0 -0.419422,0 -0.08388,0 -0.167765,0 -0.167765,0 -0.08388,0 -0.167772,-1.9e-5 -0.251656,0.08386 -0.08388,0 -0.167772,0.08386 -0.251655,0.08386 -0.419422,0.167771 -0.838838,0.419464 -1.174374,0.671115 v -0.671115 c 0,-0.922728 -0.419428,-1.677646 -0.922733,-2.264836 -0.08388,-0.08388 -0.08388,-0.08394 -0.167765,-0.167828 -0.16777,-0.167755 -0.419425,-0.335527 -0.671077,-0.41941 v -4.278076 c 0,-0.838845 -0.671076,-1.509957 -1.509919,-1.509957 h -6.459085 c -1.090496,0 -1.84546,-1.174358 -1.342153,-2.18097 L 73.64503,35.989369 c 2.348758,-5.033056 7.381814,-8.304541 13.002059,-8.388425 z M 82.28511,51.759653 c 1.677686,0 3.01984,-1.342126 3.01984,-3.01981 0,-1.677688 -1.342154,-3.019919 -3.01984,-3.019919 -1.677684,0 -3.019824,1.342231 -3.019824,3.019919 -0.08388,1.593796 1.34214,3.01981 3.019824,3.01981 z"
       style="fill:#103253;fill-opacity:1;fill-rule:evenodd;stroke:none;stroke-width:1.01587" />
    <path
       id="path44"
       d="m 72.051194,32.801829 c 0.335534,-2.600416 -1.67768,-5.200885 -4.529747,-5.200885 H 53.84831 c -5.788013,0 -10.988835,3.271469 -13.589247,8.472288 L 28.095845,61.070786 c -0.503306,1.00661 0.251645,2.18097 1.342141,2.18097 h 5.368599 c 1.006612,0 1.761568,0.922766 1.42603,1.929377 l -1.42603,5.284649 c 0,0.08388 0.08388,0.16783 0.167767,0.16783 4.026444,0 7.214039,3.271445 7.214039,7.297887 v 0.671115 c 0,4.026446 -3.271479,7.297891 -7.214039,7.297891 h -2.852073 c -0.167768,0 -0.419419,0 -0.587187,0 -0.503306,-0.08388 -1.006606,0.251675 -1.174375,0.75498 -1.845454,6.626857 3.10372,13.169787 9.898346,13.169787 H 55.693761 V 82.712966 c 0,-1.509917 1.258268,-2.768222 2.768185,-2.768222 h 0.167766 0.08389 c 0.08388,0 0.167758,0 0.251642,0 v -3.103678 c 0,-1.929339 1.593813,-3.523202 3.523148,-3.523202 0.922728,0 1.76156,0.335519 2.348749,0.922709 v -0.58715 c 0,-1.42603 0.838844,-2.684335 2.097107,-3.187641 V 67.86539 h -4.949165 c -3.271488,0 -5.368591,-3.439213 -3.942558,-6.459047 L 71.044583,34.563377 c 0.251654,-0.503301 0.587189,-1.174355 1.006611,-1.761548 z M 49.486332,51.759653 c 1.677685,0 3.019826,-1.34213 3.019826,-3.019815 0,-1.677684 -1.342141,-3.019915 -3.019826,-3.019915 -1.677686,0 -3.01984,1.342231 -3.01984,3.019915 0,1.593801 1.342154,3.019815 3.01984,3.019815 z"
       style="fill:#3679bb;fill-opacity:1;fill-rule:evenodd;stroke:none;stroke-width:1.01587" />
  </g>
</svg>
